# xmcd
#
# Track frame offsets:
#	182
#	13550
#	23975
#	37587
#	49535
#	63077
#	74827
#	91972
#	101375
#	112550
#
# Disc length: 1685 seconds
#
# Revision: 3
# Processed by: cddbd v1.5.1PL2 Copyright (c) Steve Scherf et al.
# Submitted via: audiograbber 1.83.01
#
DISCID=6b06930a
DTITLE=Various Artist - The 101 Greatest Country Hits Vol 3: Easy Country
DYEAR=1994
DGENRE=Country
TTITLE0=Lynn Anderson - Rose Garden
TTITLE1=George Hamilton IV - Abilene
TTITLE2=Dickey Lee - 9,999,999 Tears
TTITLE3=Skeeter Davis - The End of the World
TTITLE4=David Houston - Almost Persuaded
TTITLE5=Donna Fargo - The Happiest Girl in the Whole U.S.A.
TTITLE6=Ray Price - For The Good Times
TTITLE7=Harden Trio - Tippy Toeing
TTITLE8=Don Gibson - Oh, Lonesome Me
TTITLE9=Barbara Fairchild - Teddy Bear Song
EXTD=
EXTT0=LYNN ANDERSON
EXTT1=GEORGE HAMILTON IV
EXTT2=DICKEY LEE
EXTT3=SKEETER DAVIS
EXTT4=DAVID HOUSTON
EXTT5=DONNA FARGO
EXTT6=RAY PRICE
EXTT7=HARDEN TRIO
EXTT8=DON GIBSON
EXTT9=BARBARA FAIRCHILD
PLAYORDER=
